<mxfile host="app.diagrams.net" modified="2023-04-03T21:39:49.728Z" agent="Mozilla/5.0 (X11; Linux x86_64) AppleWebKit/537.36 (KHTML, like Gecko) Chrome/100.0.4896.88 Safari/537.36" etag="W9WX00NjXL4tsutIvwlq" version="21.1.4" type="github">
  <diagram name="Page-1" id="e7e014a7-5840-1c2e-5031-d8a46d1fe8dd">
    <mxGraphModel dx="756" dy="434" grid="1" gridSize="10" guides="1" tooltips="1" connect="1" arrows="1" fold="1" page="1" pageScale="1" pageWidth="1169" pageHeight="826" background="none" math="0" shadow="0">
      <root>
        <mxCell id="0" />
        <mxCell id="1" parent="0" />
        <mxCell id="2" value="Gestión de Incripciones" style="swimlane;whiteSpace=wrap" parent="1" vertex="1">
          <mxGeometry x="164.5" y="128" width="280" height="570" as="geometry" />
        </mxCell>
        <mxCell id="5" value="" style="ellipse;shape=startState;fillColor=#000000;strokeColor=#000000;" parent="2" vertex="1">
          <mxGeometry x="100" y="40" width="30" height="30" as="geometry" />
        </mxCell>
        <mxCell id="6" value="" style="edgeStyle=elbowEdgeStyle;elbow=horizontal;verticalAlign=bottom;endArrow=open;endSize=8;strokeColor=#000000;endFill=1;rounded=0" parent="2" source="5" target="7" edge="1">
          <mxGeometry x="100" y="40" as="geometry">
            <mxPoint x="115" y="110" as="targetPoint" />
          </mxGeometry>
        </mxCell>
        <mxCell id="7" value="Solicitar inscripción&#xa;a un curso" style="rounded=1;" parent="2" vertex="1">
          <mxGeometry x="60" y="110" width="110" height="50" as="geometry" />
        </mxCell>
        <mxCell id="30" value="Registrar datos&#xa;del cliente" style="rounded=1;" parent="2" vertex="1">
          <mxGeometry x="60" y="216" width="110" height="50" as="geometry" />
        </mxCell>
        <mxCell id="3" value="Gestión de Cursos" style="swimlane;whiteSpace=wrap" parent="1" vertex="1">
          <mxGeometry x="445" y="128" width="280" height="570" as="geometry" />
        </mxCell>
        <mxCell id="lwlD-sQsJKPBV1oqQ7p9-45" value="" style="edgeStyle=orthogonalEdgeStyle;rounded=0;orthogonalLoop=1;jettySize=auto;html=1;endArrow=open;endFill=0;" edge="1" parent="3" source="8" target="21">
          <mxGeometry relative="1" as="geometry" />
        </mxCell>
        <mxCell id="8" value="Verificar si hay&#xa;vacante disponible" style="rounded=1;" parent="3" vertex="1">
          <mxGeometry x="85.5" y="110" width="110" height="50" as="geometry" />
        </mxCell>
        <mxCell id="lwlD-sQsJKPBV1oqQ7p9-61" value="NO HAY" style="edgeStyle=orthogonalEdgeStyle;rounded=0;orthogonalLoop=1;jettySize=auto;html=1;exitX=0.5;exitY=1;exitDx=0;exitDy=0;entryX=0.5;entryY=0;entryDx=0;entryDy=0;endArrow=open;endFill=0;" edge="1" parent="3" source="21" target="lwlD-sQsJKPBV1oqQ7p9-58">
          <mxGeometry relative="1" as="geometry" />
        </mxCell>
        <mxCell id="21" value="Ver si hay vacante" style="rhombus;" parent="3" vertex="1">
          <mxGeometry x="86" y="212" width="109.5" height="58" as="geometry" />
        </mxCell>
        <mxCell id="10" value="Reservar vacante" style="rounded=1;" parent="3" vertex="1">
          <mxGeometry x="85" y="390" width="110" height="50" as="geometry" />
        </mxCell>
        <mxCell id="lwlD-sQsJKPBV1oqQ7p9-58" value="" style="shape=sumEllipse;perimeter=ellipsePerimeter;whiteSpace=wrap;html=1;backgroundOutline=1;" vertex="1" parent="3">
          <mxGeometry x="126.5" y="342" width="29" height="28" as="geometry" />
        </mxCell>
        <mxCell id="lwlD-sQsJKPBV1oqQ7p9-70" style="edgeStyle=orthogonalEdgeStyle;rounded=0;orthogonalLoop=1;jettySize=auto;html=1;entryX=0.5;entryY=0;entryDx=0;entryDy=0;endArrow=open;endFill=0;" edge="1" parent="3" source="lwlD-sQsJKPBV1oqQ7p9-66" target="lwlD-sQsJKPBV1oqQ7p9-69">
          <mxGeometry relative="1" as="geometry" />
        </mxCell>
        <mxCell id="lwlD-sQsJKPBV1oqQ7p9-66" value="Finalizar inscripción" style="rounded=1;" vertex="1" parent="3">
          <mxGeometry x="85" y="462" width="110" height="50" as="geometry" />
        </mxCell>
        <mxCell id="lwlD-sQsJKPBV1oqQ7p9-69" value="" style="shape=sumEllipse;perimeter=ellipsePerimeter;whiteSpace=wrap;html=1;backgroundOutline=1;" vertex="1" parent="3">
          <mxGeometry x="125" y="542" width="29" height="28" as="geometry" />
        </mxCell>
        <mxCell id="4" value="Gestión de Cobranzas" style="swimlane;whiteSpace=wrap" parent="1" vertex="1">
          <mxGeometry x="724.5" y="128" width="280" height="570" as="geometry" />
        </mxCell>
        <mxCell id="lwlD-sQsJKPBV1oqQ7p9-65" style="edgeStyle=orthogonalEdgeStyle;rounded=0;orthogonalLoop=1;jettySize=auto;html=1;entryX=0.5;entryY=0;entryDx=0;entryDy=0;endArrow=open;endFill=0;" edge="1" parent="4" source="lwlD-sQsJKPBV1oqQ7p9-62" target="lwlD-sQsJKPBV1oqQ7p9-64">
          <mxGeometry relative="1" as="geometry" />
        </mxCell>
        <mxCell id="lwlD-sQsJKPBV1oqQ7p9-62" value="Registrar pago de &#xa;matrícula" style="rounded=1;" vertex="1" parent="4">
          <mxGeometry x="95.5" y="52" width="110" height="50" as="geometry" />
        </mxCell>
        <mxCell id="lwlD-sQsJKPBV1oqQ7p9-64" value="Emitir factura" style="rounded=1;" vertex="1" parent="4">
          <mxGeometry x="95.5" y="462" width="110" height="50" as="geometry" />
        </mxCell>
        <mxCell id="9" value="" style="endArrow=open;strokeColor=#000000;endFill=1;rounded=0" parent="1" source="7" target="8" edge="1">
          <mxGeometry relative="1" as="geometry" />
        </mxCell>
        <mxCell id="lwlD-sQsJKPBV1oqQ7p9-47" value="" style="edgeStyle=orthogonalEdgeStyle;rounded=0;orthogonalLoop=1;jettySize=auto;html=1;entryX=1;entryY=0.5;entryDx=0;entryDy=0;endArrow=open;endFill=0;" edge="1" parent="1" source="21" target="30">
          <mxGeometry relative="1" as="geometry" />
        </mxCell>
        <mxCell id="lwlD-sQsJKPBV1oqQ7p9-48" value="SI HAY" style="edgeLabel;html=1;align=center;verticalAlign=middle;resizable=0;points=[];" vertex="1" connectable="0" parent="lwlD-sQsJKPBV1oqQ7p9-47">
          <mxGeometry x="0.3786" y="-1" relative="1" as="geometry">
            <mxPoint as="offset" />
          </mxGeometry>
        </mxCell>
        <mxCell id="lwlD-sQsJKPBV1oqQ7p9-49" style="edgeStyle=orthogonalEdgeStyle;rounded=0;orthogonalLoop=1;jettySize=auto;html=1;exitX=0.5;exitY=1;exitDx=0;exitDy=0;entryX=0;entryY=0.5;entryDx=0;entryDy=0;endArrow=open;endFill=0;" edge="1" parent="1" source="30" target="10">
          <mxGeometry relative="1" as="geometry" />
        </mxCell>
        <mxCell id="lwlD-sQsJKPBV1oqQ7p9-63" style="edgeStyle=orthogonalEdgeStyle;rounded=0;orthogonalLoop=1;jettySize=auto;html=1;exitX=1;exitY=0.5;exitDx=0;exitDy=0;entryX=0;entryY=0.5;entryDx=0;entryDy=0;endArrow=open;endFill=0;" edge="1" parent="1" source="10" target="lwlD-sQsJKPBV1oqQ7p9-62">
          <mxGeometry relative="1" as="geometry" />
        </mxCell>
        <mxCell id="lwlD-sQsJKPBV1oqQ7p9-68" style="edgeStyle=orthogonalEdgeStyle;rounded=0;orthogonalLoop=1;jettySize=auto;html=1;entryX=1;entryY=0.5;entryDx=0;entryDy=0;endArrow=open;endFill=0;" edge="1" parent="1" source="lwlD-sQsJKPBV1oqQ7p9-64" target="lwlD-sQsJKPBV1oqQ7p9-66">
          <mxGeometry relative="1" as="geometry" />
        </mxCell>
      </root>
    </mxGraphModel>
  </diagram>
</mxfile>
